<?xml version="1.0" encoding="UTF-8"?>
<svg width="48px" height="48px" viewBox="0 0 48 48" version="1.1" xmlns="http://www.w3.org/2000/svg" xmlns:xlink="http://www.w3.org/1999/xlink">
    <title>icon/cart</title>
    <g id="icon/cart" stroke="none" stroke-width="1" fill="none" fill-rule="evenodd">
        <path d="M24,6.49832141 C30.3195996,6.49832141 33.5242378,11.340637 33.7384822,18.2491721 L39,18.25 C41.0710678,18.25 42.75,19.9289322 42.75,22 L42.75,22 L42.75,38 C42.75,40.0710678 41.0710678,41.75 39,41.75 L39,41.75 L9,41.75 C6.92893219,41.75 5.25,40.0710678 5.25,38 L5.25,38 L5.25,22 C5.25,19.9289322 6.92893219,18.25 9,18.25 L9,18.25 L14.2615178,18.2491721 C14.4757622,11.340637 17.6804004,6.49832141 24,6.49832141 Z M39,19.75 L9,19.75 C7.75735931,19.75 6.75,20.7573593 6.75,22 L6.75,22 L6.75,38 C6.75,39.2426407 7.75735931,40.25 9,40.25 L9,40.25 L39,40.25 C40.2426407,40.25 41.25,39.2426407 41.25,38 L41.25,38 L41.25,22 C41.25,20.7573593 40.2426407,19.75 39,19.75 L39,19.75 Z M24,7.99832141 C18.6870785,7.99832141 15.9638616,12.0829845 15.7621114,18.2496047 L32.2378886,18.2496047 C32.0361384,12.0829845 29.3129215,7.99832141 24,7.99832141 Z" id="Combined-Shape" fill="#000000" fill-rule="nonzero"></path>
    </g>
</svg>