<?xml version="1.0" encoding="UTF-8"?>
<svg width="48px" height="48px" viewBox="0 0 48 48" version="1.1" xmlns="http://www.w3.org/2000/svg" xmlns:xlink="http://www.w3.org/1999/xlink">
    <title>icon/hamberger</title>
    <g id="icon/hamberger" stroke="none" stroke-width="1" fill="none" fill-rule="evenodd">
        <path d="M35.5335524,29.25 C35.9477659,29.25 36.2835524,29.5857864 36.2835524,30 C36.2835524,30.3796958 36.0013985,30.693491 35.6353229,30.7431534 L35.5335524,30.75 L11.5335524,30.75 C11.1193388,30.75 10.7835524,30.4142136 10.7835524,30 C10.7835524,29.6203042 11.0657062,29.306509 11.4317818,29.2568466 L11.5335524,29.25 L35.5335524,29.25 Z M35.5335524,23.25 C35.9477659,23.25 36.2835524,23.5857864 36.2835524,24 C36.2835524,24.3796958 36.0013985,24.693491 35.6353229,24.7431534 L35.5335524,24.75 L11.5335524,24.75 C11.1193388,24.75 10.7835524,24.4142136 10.7835524,24 C10.7835524,23.6203042 11.0657062,23.306509 11.4317818,23.2568466 L11.5335524,23.25 L35.5335524,23.25 Z M35.5335524,17.25 C35.9477659,17.25 36.2835524,17.5857864 36.2835524,18 C36.2835524,18.3796958 36.0013985,18.693491 35.6353229,18.7431534 L35.5335524,18.75 L11.5335524,18.75 C11.1193388,18.75 10.7835524,18.4142136 10.7835524,18 C10.7835524,17.6203042 11.0657062,17.306509 11.4317818,17.2568466 L11.5335524,17.25 L35.5335524,17.25 Z" id="Combined-Shape" fill="#000000" fill-rule="nonzero"></path>
    </g>
</svg>