<?xml version="1.0" encoding="UTF-8"?>
<svg width="48px" height="48px" viewBox="0 0 48 48" version="1.1" xmlns="http://www.w3.org/2000/svg" xmlns:xlink="http://www.w3.org/1999/xlink">
    <title>icon/heart-active</title>
    <g id="icon/heart-active" stroke="none" stroke-width="1" fill="none" fill-rule="evenodd">
        <g id="heart-copy" transform="translate(24.000000, 24.000000) rotate(-360.000000) translate(-24.000000, -24.000000) translate(9.000000, 11.000000)" fill="#000000" fill-rule="nonzero">
            <path d="M27.5767911,2.4137931 C26.0058847,0.865203762 23.9261827,0.0188087774 21.7065618,0.0188087774 C19.486941,0.0188087774 17.400879,0.871473354 15.8299726,2.4200627 L15.0095397,3.22884013 L14.1763869,2.40752351 C12.6054804,0.858934169 10.5130585,0 8.29343766,0 C6.08017677,0 3.99411478,0.852664577 2.42956829,2.39498433 C0.858661858,3.94357367 -0.00629067357,6 3.44462501e-05,8.18808777 C3.44462501e-05,10.3761755 0.871381748,12.4263323 2.44228818,13.9749216 L14.386265,25.7492163 C14.5516236,25.9122257 14.7742217,26 14.9904598,26 C15.206698,26 15.429296,25.9184953 15.5946546,25.7554859 L27.5640713,14 C29.1349777,12.4514107 29.9999653,10.3949843 29.9999653,8.20689655 C30.0062902,6.01880878 29.1476976,3.96238245 27.5767911,2.4137931 Z" id="Shape"></path>
        </g>
    </g>
</svg>