<?xml version="1.0" encoding="UTF-8"?>
<svg width="154px" height="27px" viewBox="0 0 154 27" version="1.1" xmlns="http://www.w3.org/2000/svg" xmlns:xlink="http://www.w3.org/1999/xlink">
    <title>logo1</title>
    <g id="logo1" stroke="none" stroke-width="1" fill="none" fill-rule="evenodd">
        <g id="ZARA" transform="translate(11.276000, 9.080000)" fill="#000000" fill-rule="nonzero">
            <path d="M6.468,1.152 L6.468,0 L0.18,0 L0.18,1.212 L4.812,1.212 L0,7.476 L0,8.64 L5.964,8.64 C6.564,8.64 6.696,7.944 6.636,7.428 L1.584,7.428 L6.468,1.152 Z" id="Z"></path>
            <path d="M16.46,8.64 L17.42,6.372 L21.572,6.372 L22.568,8.64 L24.08,8.64 C22.928,6.084 21.62,3.108 20.468,0.552 C20.288,0.144 19.88,0 19.448,0 L18.728,0 L15.008,8.64 L16.46,8.64 Z M21.056,5.172 L17.924,5.172 L19.472,1.536 L21.056,5.172 Z" id="A"></path>
            <path d="M32.8,8.64 L34.24,8.64 L34.24,4.86 L35.764,4.86 C36.34,4.86 36.844,4.932 37.156,5.628 L38.428,8.64 L40.072,8.64 L39.208,6.768 L38.452,5.1 C38.26,4.716 38.068,4.5 37.732,4.332 C38.668,4.032 39.448,3.336 39.448,2.4 C39.448,0.552 37.876,0 36.004,0 L32.8,0 L32.8,8.64 Z M34.24,1.212 L36.304,1.212 C37.372,1.212 38.008,1.68 38.008,2.376 C38.008,3.096 37.036,3.66 36.004,3.66 L34.24,3.66 L34.24,1.212 Z" id="R"></path>
            <path d="M49.68,8.64 L50.64,6.372 L54.792,6.372 L55.788,8.64 L57.3,8.64 C56.148,6.084 54.84,3.108 53.688,0.552 C53.508,0.144 53.1,0 52.668,0 L51.948,0 L48.228,8.64 L49.68,8.64 Z M54.276,5.172 L51.144,5.172 L52.692,1.536 L54.276,5.172 Z" id="A"></path>
        </g>
        <g id="NARA" transform="translate(84.636000, 9.056893)" fill="#000000" fill-rule="nonzero">
            <path d="M2.1,0.599106749 C1.8,0.0951067488 1.404,0.0231067488 0.9,0.0231067488 L0,0.0231067488 L0,8.66310675 L1.428,8.66310675 L1.428,1.90710675 L5.664,8.66310675 L7.368,8.66310675 L7.368,0.803106749 C7.368,0.0591067488 6.552,-0.0608932512 5.94,0.0231067488 L5.94,6.62310675 L5.904,6.57510675 C4.656,4.58310675 3.372,2.57910675 2.1,0.599106749 Z" id="N"></path>
            <path d="M17.54,8.66310675 L18.5,6.39510675 L22.652,6.39510675 L23.648,8.66310675 L25.16,8.66310675 C24.008,6.10710675 22.7,3.13110675 21.548,0.575106749 C21.368,0.167106749 20.96,0.0231067488 20.528,0.0231067488 L19.808,0.0231067488 L16.088,8.66310675 L17.54,8.66310675 Z M22.136,5.19510675 L19.004,5.19510675 L20.552,1.55910675 L22.136,5.19510675 Z" id="A"></path>
            <path d="M33.88,8.66310675 L35.32,8.66310675 L35.32,4.88310675 L36.844,4.88310675 C37.42,4.88310675 37.924,4.95510675 38.236,5.65110675 L39.508,8.66310675 L41.152,8.66310675 L40.288,6.79110675 L39.532,5.12310675 C39.34,4.73910675 39.148,4.52310675 38.812,4.35510675 C39.748,4.05510675 40.528,3.35910675 40.528,2.42310675 C40.528,0.575106749 38.956,0.0231067488 37.084,0.0231067488 L33.88,0.0231067488 L33.88,8.66310675 Z M35.32,1.23510675 L37.384,1.23510675 C38.452,1.23510675 39.088,1.70310675 39.088,2.39910675 C39.088,3.11910675 38.116,3.68310675 37.084,3.68310675 L35.32,3.68310675 L35.32,1.23510675 Z" id="R"></path>
            <path d="M50.76,8.66310675 L51.72,6.39510675 L55.872,6.39510675 L56.868,8.66310675 L58.38,8.66310675 C57.228,6.10710675 55.92,3.13110675 54.768,0.575106749 C54.588,0.167106749 54.18,0.0231067488 53.748,0.0231067488 L53.028,0.0231067488 L49.308,8.66310675 L50.76,8.66310675 Z M55.356,5.19510675 L52.224,5.19510675 L53.772,1.55910675 L55.356,5.19510675 Z" id="A"></path>
        </g>
    </g>
</svg>