<?xml version="1.0" encoding="UTF-8"?>
<svg width="154px" height="27px" viewBox="0 0 154 27" version="1.1" xmlns="http://www.w3.org/2000/svg" xmlns:xlink="http://www.w3.org/1999/xlink">
    <title>logo1</title>
    <g id="logo1" stroke="none" stroke-width="1" fill="none" fill-rule="evenodd">
        <path d="M17.744,9.08 L17.744,10.232 L12.86,16.508 L17.912,16.508 C17.972,17.024 17.84,17.72 17.24,17.72 L17.24,17.72 L11.276,17.72 L11.276,16.556 L16.088,10.292 L11.456,10.292 L11.456,9.08 L17.744,9.08 Z M30.724,9.08 C31.156,9.08 31.564,9.224 31.744,9.632 C32.896,12.188 34.204,15.164 35.356,17.72 L35.356,17.72 L33.844,17.72 L32.848,15.452 L28.696,15.452 L27.736,17.72 L26.284,17.72 L30.004,9.08 Z M47.28,9.08 C49.152,9.08 50.724,9.632 50.724,11.48 C50.724,12.416 49.944,13.112 49.008,13.412 C49.344,13.58 49.536,13.796 49.728,14.18 L49.728,14.18 L50.484,15.848 L51.348,17.72 L49.704,17.72 L48.432,14.708 C48.12,14.012 47.616,13.94 47.04,13.94 L47.04,13.94 L45.516,13.94 L45.516,17.72 L44.076,17.72 L44.076,9.08 Z M63.944,9.08 C64.376,9.08 64.784,9.224 64.964,9.632 C66.116,12.188 67.424,15.164 68.576,17.72 L68.576,17.72 L67.064,17.72 L66.068,15.452 L61.916,15.452 L60.956,17.72 L59.504,17.72 L63.224,9.08 Z M90.576,9.08 C91.188,8.996 92.004,9.116 92.004,9.86 L92.004,9.86 L92.004,17.72 L90.3,17.72 L86.064,10.964 L86.064,17.72 L84.636,17.72 L84.636,9.08 L85.536,9.08 C86.04,9.08 86.436,9.152 86.736,9.656 C88.008,11.636 89.292,13.64 90.54,15.632 L90.54,15.632 L90.576,15.68 Z M105.164,9.08 C105.596,9.08 106.004,9.224 106.184,9.632 C107.336,12.188 108.644,15.164 109.796,17.72 L109.796,17.72 L108.284,17.72 L107.288,15.452 L103.136,15.452 L102.176,17.72 L100.724,17.72 L104.444,9.08 Z M121.72,9.08 C123.592,9.08 125.164,9.632 125.164,11.48 C125.164,12.416 124.384,13.112 123.448,13.412 C123.784,13.58 123.976,13.796 124.168,14.18 L124.168,14.18 L124.924,15.848 L125.788,17.72 L124.144,17.72 L122.872,14.708 C122.56,14.012 122.056,13.94 121.48,13.94 L121.48,13.94 L119.956,13.94 L119.956,17.72 L118.516,17.72 L118.516,9.08 Z M138.384,9.08 C138.816,9.08 139.224,9.224 139.404,9.632 C140.556,12.188 141.864,15.164 143.016,17.72 L143.016,17.72 L141.504,17.72 L140.508,15.452 L136.356,15.452 L135.396,17.72 L133.944,17.72 L137.664,9.08 Z M30.748,10.616 L29.2,14.252 L32.332,14.252 L30.748,10.616 Z M63.968,10.616 L62.42,14.252 L65.552,14.252 L63.968,10.616 Z M105.188,10.616 L103.64,14.252 L106.772,14.252 L105.188,10.616 Z M138.408,10.616 L136.86,14.252 L139.992,14.252 L138.408,10.616 Z M47.58,10.292 L45.516,10.292 L45.516,12.74 L47.28,12.74 C48.312,12.74 49.284,12.176 49.284,11.456 C49.284,10.76 48.648,10.292 47.58,10.292 L47.58,10.292 Z M122.02,10.292 L119.956,10.292 L119.956,12.74 L121.72,12.74 C122.752,12.74 123.724,12.176 123.724,11.456 C123.724,10.76 123.088,10.292 122.02,10.292 L122.02,10.292 Z" id="Combined-Shape" fill="#000000" fill-rule="nonzero"></path>
    </g>
</svg>