<?xml version="1.0" encoding="UTF-8"?>
<svg width="134px" height="27px" viewBox="0 0 134 27" version="1.1" xmlns="http://www.w3.org/2000/svg" xmlns:xlink="http://www.w3.org/1999/xlink">
    <title>logo2</title>
    <g id="logo2" stroke="none" stroke-width="1" fill="none" fill-rule="evenodd">
        <path d="M15.038,8.986 C15.13,8.99 15.2,8.996 15.248,9.004 C15.328,9.02 15.396,9.052 15.452,9.1 C15.54,9.18 15.562,9.312 15.518,9.496 C15.474,9.68 15.37,9.922 15.206,10.222 C15.042,10.522 14.8,10.908 14.48,11.38 C14.128,11.908 13.676,12.52 13.124,13.216 C12.932,13.448 12.772,13.652 12.644,13.828 C12.612,13.86 12.452,14.06 12.164,14.428 C11.876,14.796 11.692,15.032 11.612,15.136 C11.476,15.312 11.132,15.668 10.58,16.204 L9.776,17.008 L13.04,17.02 C13.584,17.028 14.056,17.034 14.456,17.038 C14.856,17.042 15.178,17.046 15.422,17.05 C15.666,17.054 15.836,17.056 15.932,17.056 C16.22,17.064 16.396,17.1 16.46,17.164 C16.628,17.34 16.644,17.488 16.508,17.608 C16.46,17.656 16.366,17.694 16.226,17.722 C16.086,17.75 15.9,17.77 15.668,17.782 C15.436,17.794 15.164,17.796 14.852,17.788 C13.94,17.78 13.132,17.774 12.428,17.77 C11.9586667,17.7673333 11.5355556,17.7655556 11.1586667,17.7646667 L10.628,17.764 C10.132,17.764 9.736,17.77 9.44,17.782 C9.144,17.794 8.952,17.808 8.864,17.824 C8.656,17.856 8.488,17.836 8.36,17.764 C8.336,17.748 8.314,17.732 8.294,17.716 C8.274,17.7 8.258,17.682 8.246,17.662 L8.21,17.602 L8.21,17.602 C8.198,17.582 8.19,17.56 8.186,17.536 C8.182,17.512 8.18,17.484 8.18,17.452 C8.18,17.356 8.198,17.288 8.234,17.248 C8.27,17.208 8.352,17.144 8.48,17.056 C9.048,16.696 9.556,16.296 10.004,15.856 C10.796,15.112 11.5,14.292 12.116,13.396 C12.164,13.324 12.224,13.244 12.296,13.156 C12.368,13.068 12.452,12.972 12.548,12.868 C12.779,12.588 12.9211875,12.412125 12.9745625,12.340375 L12.992,12.316 C13.008,12.292 13.046,12.238 13.106,12.154 C13.166,12.07 13.252,11.956 13.364,11.812 C13.78,11.268 14.1,10.796 14.324,10.396 C14.428,10.196 14.516,10.044 14.588,9.94 C14.628,9.884 14.648,9.836 14.648,9.796 C14.656,9.756 14.646,9.728 14.618,9.712 C14.59,9.696 14.548,9.684 14.492,9.676 L13.916,9.712 C13.468,9.768 12.828,9.852 11.996,9.964 C11.708,10.02 11.236,10.064 10.58,10.096 C10.108,10.128 9.82,10.142 9.716,10.138 C9.612,10.134 9.532,10.104 9.476,10.048 C9.436,10.008 9.41,9.968 9.398,9.928 C9.386,9.888 9.384,9.844 9.392,9.796 C9.416,9.708 9.488,9.636 9.608,9.58 C9.632,9.572 9.672,9.562 9.728,9.55 C9.784,9.538 9.854,9.526 9.938,9.514 C10.022,9.502 10.12,9.488 10.232,9.472 C10.344,9.456 10.468,9.44 10.604,9.424 C10.924,9.4 11.372,9.356 11.948,9.292 C12.156,9.26 12.504,9.22 12.992,9.172 C13.312,9.14 13.572,9.1 13.772,9.052 C13.932,9.012 14.236,8.988 14.684,8.98 C14.828,8.98 14.946,8.982 15.038,8.986 Z M42.252,8.764 C42.308,8.78 42.364,8.794 42.42,8.806 C42.476,8.818 42.53,8.828 42.582,8.836 L42.6615,8.848 L42.6615,8.848 L42.744,8.86 C42.904,8.892 42.996,8.924 43.02,8.956 C43.036,8.98 43.072,8.992 43.128,8.992 C43.192,8.992 43.364,9.076 43.644,9.244 C43.788,9.332 43.914,9.428 44.022,9.532 C44.13,9.636 44.228,9.744 44.316,9.856 C44.372,9.944 44.416,10.012 44.448,10.06 C44.456,10.076 44.464,10.094 44.472,10.114 C44.48,10.134 44.486,10.154 44.49,10.174 C44.494,10.194 44.5,10.212 44.508,10.228 C44.532,10.292 44.548,10.352 44.556,10.408 C44.564,10.464 44.576,10.544 44.592,10.648 C44.608,10.936 44.58,11.242 44.508,11.566 C44.436,11.89 44.348,12.104 44.244,12.208 C44.244,12.2 44.234,12.22 44.214,12.268 C44.194,12.316 44.184,12.344 44.184,12.352 C44.184,12.448 44.02,12.692 43.692,13.084 C43.636,13.156 43.592,13.224 43.56,13.288 C43.536,13.344 43.528,13.396 43.536,13.444 C43.544,13.492 43.572,13.536 43.62,13.576 C43.852,13.768 44.26,14.264 44.844,15.064 C44.956,15.208 45.06,15.348 45.156,15.484 C45.252,15.62 45.34,15.756 45.42,15.892 C45.596,16.156 45.724,16.384 45.804,16.576 C45.892,16.768 45.926,16.892 45.906,16.948 C45.886,17.004 45.824,17.068 45.72,17.14 C45.608,17.22 45.504,17.22 45.408,17.14 C45.32,17.06 45.184,16.848 45,16.504 C44.784,16.096 44.628,15.828 44.532,15.7 C44.476,15.644 44.336,15.468 44.112,15.172 C44.088,15.132 44.06,15.092 44.028,15.052 C43.996,15.012 43.962,14.97 43.926,14.926 L43.818,14.794 L43.818,14.794 C43.782,14.75 43.744,14.702 43.704,14.65 C43.664,14.598 43.62,14.548 43.572,14.5 C43.524,14.452 43.476,14.4 43.428,14.344 C43.196,14.088 43.03,13.942 42.93,13.906 C42.83,13.87 42.66,13.892 42.42,13.972 C41.876,14.172 41.172,14.272 40.308,14.272 L39.552,14.272 L39.552,15.064 C39.552,15.616 39.568,16.056 39.6,16.384 C39.64,16.712 39.688,16.904 39.744,16.96 C39.8537143,17.0834286 39.866449,17.2538776 39.7822041,17.4713469 L39.732,17.584 C39.668,17.688 39.618,17.756 39.582,17.788 C39.546,17.82 39.484,17.836 39.396,17.836 C39.26,17.836 39.156,17.768 39.084,17.632 C38.94,17.336 38.868,15.54 38.868,12.244 L38.8680533,11.98704 L38.8680533,11.98704 L38.8688533,11.30064 C38.8704178,10.5391467 38.8741333,10.0616 38.88,9.868 C38.8937143,9.64171429 38.9191837,9.50065306 38.9564082,9.44481633 L38.976,9.424 C39.072,9.384 39.192,9.364 39.336,9.364 C39.464,9.364 39.5536,9.34608 39.6048,9.31024 L39.636,9.28 C39.692,9.224 39.828,9.148 40.044,9.052 C40.124,9.028 40.196,9.004 40.26,8.98 C40.324,8.956 40.386,8.934 40.446,8.914 L40.5315,8.8885 L40.5315,8.8885 L40.608,8.872 C40.648,8.872 40.696,8.868 40.752,8.86 L40.884,8.824 L40.92,8.821 L40.92,8.821 L40.956,8.812 C40.98,8.804 41.004,8.8 41.028,8.8 L41.148,8.776 C41.54,8.696 41.908,8.692 42.252,8.764 Z M82.774,8.98 C82.858,9.036 82.916,9.16 82.948,9.352 C82.9653333,9.44733333 82.9744514,9.87479861 82.9753542,10.6343958 L82.9751875,11.0085625 C82.9740625,11.6051875 82.969,12.361 82.96,13.276 L82.96,13.288 C82.936,15.216 82.91,16.352 82.882,16.696 C82.854,17.04 82.764,17.268 82.612,17.38 C82.54,17.42 82.48,17.438 82.432,17.434 C82.384,17.43 82.28,17.388 82.12,17.308 C81.736,17.132 81.3,16.786 80.812,16.27 C80.324,15.754 79.884,15.18 79.492,14.548 C79.14,13.964 78.7,13.312 78.172,12.592 C77.972,12.32 77.668,11.844 77.26,11.164 C77.148,10.98 77.06,10.876 76.996,10.852 C76.956,10.836 76.924,10.852 76.9,10.9 L76.888,10.948 C76.8676,11.0364 76.85587,11.71725 76.85281,12.99055 L76.85209,13.46455 C76.85203,13.54765 76.852,13.6328 76.852,13.72 C76.852,15.464 76.884,16.408 76.948,16.552 C77.02,16.728 77.044,16.95 77.02,17.218 C76.996,17.486 76.924,17.676 76.804,17.788 C76.748,17.844 76.67,17.852 76.57,17.812 C76.47,17.772 76.388,17.7 76.324,17.596 C76.292,17.532 76.268,17.458 76.252,17.374 C76.236,17.29 76.224,17.16 76.216,16.984 C76.208,16.808 76.196,16.536 76.18,16.168 L76.1786531,16.0034898 L76.1786531,16.0034898 L76.1781633,15.6336939 C76.1799592,14.905898 76.1965714,13.904 76.228,12.628 C76.236,12.084 76.246,11.62 76.258,11.236 C76.27,10.852 76.284,10.546 76.3,10.318 C76.316,10.09 76.332,9.944 76.348,9.88 C76.38,9.712 76.452,9.58 76.564,9.484 L76.72,9.352 L77.008,9.496 C77.192,9.592 77.3,9.692 77.332,9.796 C77.364,9.948 77.46,10.168 77.62,10.456 C77.7,10.6 77.83,10.838 78.01,11.17 C78.19,11.502 78.46,11.9 78.82,12.364 C79.164,12.796 79.564,13.388 80.02,14.14 C80.212,14.452 80.38,14.712 80.524,14.92 C80.612,15.04 80.74,15.192 80.908,15.376 C81.076,15.56 81.246,15.738 81.418,15.91 C81.59,16.082 81.748,16.228 81.892,16.348 C82.036,16.468 82.116,16.524 82.132,16.516 C82.156,16.508 82.174,16.45 82.186,16.342 C82.198,16.234 82.208,16.076 82.216,15.868 C82.232,15.444 82.256,14.42 82.288,12.796 C82.32,11.172 82.344,10.142 82.36,9.706 C82.376,9.27 82.408,9.036 82.456,9.004 C82.584,8.932 82.69,8.924 82.774,8.98 Z M27.748,8.68 C27.836,8.68 27.916,8.694 27.988,8.722 C28.06,8.75 28.12,8.796 28.168,8.86 C28.28,8.988 28.336,9.088 28.336,9.16 C28.344,9.232 28.36,9.28 28.384,9.304 C28.424,9.336 28.448,9.4 28.456,9.496 C28.456,9.544 28.462,9.596 28.474,9.652 C28.486,9.708 28.504,9.764 28.528,9.82 C28.64,10.084 28.752,10.42 28.864,10.828 C28.896,10.956 28.992,11.28 29.152,11.8 C29.28,12.168 29.372,12.456 29.428,12.664 C29.452,12.744 29.474,12.816 29.494,12.88 C29.514,12.944 29.532,13.002 29.548,13.054 C29.564,13.106 29.58,13.154 29.596,13.198 C29.612,13.242 29.624,13.276 29.632,13.3 C29.672,13.42 29.708,13.508 29.74,13.564 C29.756,13.588 29.776,13.608 29.8,13.624 C29.824,13.64 29.848,13.652 29.872,13.66 C30.072,13.732 30.124,13.904 30.028,14.176 C29.98,14.304 29.972,14.476 30.004,14.692 C30.036,14.9 30.124,15.264 30.268,15.784 C30.3,15.88 30.324,15.97 30.34,16.054 C30.356,16.138 30.364,16.216 30.364,16.288 C30.364,16.432 30.38,16.568 30.412,16.696 C30.452,16.848 30.48,17.04 30.496,17.272 C30.512,17.376 30.516,17.466 30.508,17.542 C30.5,17.618 30.484,17.68 30.46,17.728 C30.4216,17.792 30.35248,17.82784 30.25264,17.83552 L30.16,17.836 C30.104,17.828 30.052,17.788 30.004,17.716 C29.956,17.644 29.916,17.544 29.884,17.416 C29.852,17.288 29.82,17.132 29.788,16.948 C29.676,16.044 29.492,15.212 29.236,14.452 L29.164,14.248 L28.552,14.248 C27.944,14.256 27.42,14.288 26.98,14.344 C26.892,14.352 26.812,14.362 26.74,14.374 C26.668,14.386 26.602,14.398 26.542,14.41 C26.482,14.422 26.428,14.434 26.38,14.446 C26.332,14.458 26.29,14.472 26.254,14.488 C26.218,14.504 26.192,14.52 26.176,14.536 C26.128,14.576 26.104,14.664 26.104,14.8 C26.104,14.872 26.096,14.95 26.08,15.034 C26.064,15.118 26.042,15.2 26.014,15.28 C25.986,15.36 25.966,15.442 25.954,15.526 C25.942,15.61 25.936,15.692 25.936,15.772 C25.936,15.844 25.928,15.916 25.912,15.988 C25.896,16.06 25.872,16.136 25.84,16.216 C25.808,16.288 25.786,16.364 25.774,16.444 C25.762,16.524 25.756,16.608 25.756,16.696 C25.756,16.744 25.752,16.794 25.744,16.846 C25.736,16.898 25.728,16.952 25.72,17.008 C25.696,17.128 25.672,17.236 25.648,17.332 C25.624,17.436 25.594,17.528 25.558,17.608 C25.522,17.688 25.488,17.736 25.456,17.752 C25.296,17.88 25.16,17.856 25.048,17.68 C24.928,17.512 24.936,17.184 25.072,16.696 C25.136,16.44 25.188,16.2 25.228,15.976 C25.268,15.736 25.2996667,15.5598889 25.323,15.4476667 L25.336,15.388 C25.36,15.3 25.392,15.124 25.432,14.86 C25.448,14.732 25.466,14.624 25.486,14.536 C25.506,14.448 25.524,14.376 25.54,14.32 C25.572,14.24 25.612,14.044 25.66,13.732 C25.7112,13.4248 25.79056,13.09712 25.89808,12.74896 L25.984,12.484 C25.992,12.46 26.076,12.212 26.236,11.74 C26.3128,11.4904 26.37936,11.29456 26.43568,11.15248 L26.476,11.056 C26.516,10.976 26.572,10.808 26.644,10.552 C26.932,9.6 27.168,9.02 27.352,8.812 C27.4,8.764 27.456,8.73 27.52,8.71 C27.584,8.69 27.66,8.68 27.748,8.68 Z M57.056,8.68 C57.144,8.68 57.224,8.694 57.296,8.722 C57.368,8.75 57.428,8.796 57.476,8.86 C57.588,8.988 57.644,9.088 57.644,9.16 C57.652,9.232 57.668,9.28 57.692,9.304 C57.732,9.336 57.756,9.4 57.764,9.496 C57.764,9.544 57.77,9.596 57.782,9.652 C57.794,9.708 57.812,9.764 57.836,9.82 C57.948,10.084 58.06,10.42 58.172,10.828 C58.204,10.956 58.3,11.28 58.46,11.8 C58.588,12.168 58.68,12.456 58.736,12.664 C58.76,12.744 58.782,12.816 58.802,12.88 C58.822,12.944 58.84,13.002 58.856,13.054 C58.872,13.106 58.888,13.154 58.904,13.198 C58.92,13.242 58.932,13.276 58.94,13.3 C58.98,13.42 59.016,13.508 59.048,13.564 C59.064,13.588 59.084,13.608 59.108,13.624 C59.132,13.64 59.156,13.652 59.18,13.66 C59.38,13.732 59.432,13.904 59.336,14.176 C59.288,14.304 59.28,14.476 59.312,14.692 C59.344,14.9 59.432,15.264 59.576,15.784 C59.608,15.88 59.632,15.97 59.648,16.054 C59.664,16.138 59.672,16.216 59.672,16.288 C59.672,16.432 59.688,16.568 59.72,16.696 C59.76,16.848 59.788,17.04 59.804,17.272 C59.82,17.376 59.824,17.466 59.816,17.542 C59.808,17.618 59.792,17.68 59.768,17.728 C59.7296,17.792 59.66048,17.82784 59.56064,17.83552 L59.468,17.836 C59.412,17.828 59.36,17.788 59.312,17.716 C59.264,17.644 59.224,17.544 59.192,17.416 C59.16,17.288 59.128,17.132 59.096,16.948 C58.984,16.044 58.8,15.212 58.544,14.452 L58.472,14.248 L57.86,14.248 C57.252,14.256 56.728,14.288 56.288,14.344 C56.2,14.352 56.12,14.362 56.048,14.374 C55.976,14.386 55.91,14.398 55.85,14.41 C55.79,14.422 55.736,14.434 55.688,14.446 C55.64,14.458 55.598,14.472 55.562,14.488 C55.526,14.504 55.5,14.52 55.484,14.536 C55.436,14.576 55.412,14.664 55.412,14.8 C55.412,14.872 55.404,14.95 55.388,15.034 C55.372,15.118 55.35,15.2 55.322,15.28 C55.294,15.36 55.274,15.442 55.262,15.526 C55.25,15.61 55.244,15.692 55.244,15.772 C55.244,15.844 55.236,15.916 55.22,15.988 C55.204,16.06 55.18,16.136 55.148,16.216 C55.116,16.288 55.094,16.364 55.082,16.444 C55.07,16.524 55.064,16.608 55.064,16.696 C55.064,16.744 55.06,16.794 55.052,16.846 C55.044,16.898 55.036,16.952 55.028,17.008 C55.004,17.128 54.98,17.236 54.956,17.332 C54.932,17.436 54.902,17.528 54.866,17.608 C54.83,17.688 54.796,17.736 54.764,17.752 C54.604,17.88 54.468,17.856 54.356,17.68 C54.236,17.512 54.244,17.184 54.38,16.696 C54.444,16.44 54.496,16.2 54.536,15.976 C54.576,15.736 54.6076667,15.5598889 54.631,15.4476667 L54.644,15.388 C54.668,15.3 54.7,15.124 54.74,14.86 C54.756,14.732 54.774,14.624 54.794,14.536 C54.814,14.448 54.832,14.376 54.848,14.32 C54.88,14.24 54.92,14.044 54.968,13.732 C55.0192,13.4248 55.09856,13.09712 55.20608,12.74896 L55.292,12.484 C55.3,12.46 55.384,12.212 55.544,11.74 C55.6208,11.4904 55.68736,11.29456 55.74368,11.15248 L55.784,11.056 C55.824,10.976 55.88,10.808 55.952,10.552 C56.24,9.6 56.476,9.02 56.66,8.812 C56.708,8.764 56.764,8.73 56.828,8.71 C56.892,8.69 56.968,8.68 57.056,8.68 Z M94.116,8.68 C94.204,8.68 94.284,8.694 94.356,8.722 C94.428,8.75 94.488,8.796 94.536,8.86 C94.648,8.988 94.704,9.088 94.704,9.16 C94.712,9.232 94.728,9.28 94.752,9.304 C94.792,9.336 94.816,9.4 94.824,9.496 C94.824,9.544 94.83,9.596 94.842,9.652 C94.854,9.708 94.872,9.764 94.896,9.82 C95.008,10.084 95.12,10.42 95.232,10.828 C95.264,10.956 95.36,11.28 95.52,11.8 C95.648,12.168 95.74,12.456 95.796,12.664 C95.82,12.744 95.842,12.816 95.862,12.88 C95.882,12.944 95.9,13.002 95.916,13.054 C95.932,13.106 95.948,13.154 95.964,13.198 C95.98,13.242 95.992,13.276 96,13.3 C96.04,13.42 96.076,13.508 96.108,13.564 C96.124,13.588 96.144,13.608 96.168,13.624 C96.192,13.64 96.216,13.652 96.24,13.66 C96.44,13.732 96.492,13.904 96.396,14.176 C96.348,14.304 96.34,14.476 96.372,14.692 C96.404,14.9 96.492,15.264 96.636,15.784 C96.668,15.88 96.692,15.97 96.708,16.054 C96.724,16.138 96.732,16.216 96.732,16.288 C96.732,16.432 96.748,16.568 96.78,16.696 C96.82,16.848 96.848,17.04 96.864,17.272 C96.88,17.376 96.884,17.466 96.876,17.542 C96.868,17.618 96.852,17.68 96.828,17.728 C96.7896,17.792 96.72048,17.82784 96.62064,17.83552 L96.528,17.836 C96.472,17.828 96.42,17.788 96.372,17.716 C96.324,17.644 96.284,17.544 96.252,17.416 C96.22,17.288 96.188,17.132 96.156,16.948 C96.044,16.044 95.86,15.212 95.604,14.452 L95.532,14.248 L94.92,14.248 C94.312,14.256 93.788,14.288 93.348,14.344 C93.26,14.352 93.18,14.362 93.108,14.374 C93.036,14.386 92.97,14.398 92.91,14.41 C92.85,14.422 92.796,14.434 92.748,14.446 C92.7,14.458 92.658,14.472 92.622,14.488 C92.586,14.504 92.56,14.52 92.544,14.536 C92.496,14.576 92.472,14.664 92.472,14.8 C92.472,14.872 92.464,14.95 92.448,15.034 C92.432,15.118 92.41,15.2 92.382,15.28 C92.354,15.36 92.334,15.442 92.322,15.526 C92.31,15.61 92.304,15.692 92.304,15.772 C92.304,15.844 92.296,15.916 92.28,15.988 C92.264,16.06 92.24,16.136 92.208,16.216 C92.176,16.288 92.154,16.364 92.142,16.444 C92.13,16.524 92.124,16.608 92.124,16.696 C92.124,16.744 92.12,16.794 92.112,16.846 C92.104,16.898 92.096,16.952 92.088,17.008 C92.064,17.128 92.04,17.236 92.016,17.332 C91.992,17.436 91.962,17.528 91.926,17.608 C91.89,17.688 91.856,17.736 91.824,17.752 C91.664,17.88 91.528,17.856 91.416,17.68 C91.296,17.512 91.304,17.184 91.44,16.696 C91.504,16.44 91.556,16.2 91.596,15.976 C91.636,15.736 91.6676667,15.5598889 91.691,15.4476667 L91.704,15.388 C91.728,15.3 91.76,15.124 91.8,14.86 C91.816,14.732 91.834,14.624 91.854,14.536 C91.874,14.448 91.892,14.376 91.908,14.32 C91.94,14.24 91.98,14.044 92.028,13.732 C92.0792,13.4248 92.15856,13.09712 92.26608,12.74896 L92.352,12.484 C92.36,12.46 92.444,12.212 92.604,11.74 C92.6808,11.4904 92.74736,11.29456 92.80368,11.15248 L92.844,11.056 C92.884,10.976 92.94,10.808 93.012,10.552 C93.3,9.6 93.536,9.02 93.72,8.812 C93.768,8.764 93.824,8.73 93.888,8.71 C93.952,8.69 94.028,8.68 94.116,8.68 Z M108.62,8.764 C108.676,8.78 108.732,8.794 108.788,8.806 C108.844,8.818 108.898,8.828 108.95,8.836 L109.0295,8.848 L109.0295,8.848 L109.112,8.86 C109.272,8.892 109.364,8.924 109.388,8.956 C109.404,8.98 109.44,8.992 109.496,8.992 C109.56,8.992 109.732,9.076 110.012,9.244 C110.156,9.332 110.282,9.428 110.39,9.532 C110.498,9.636 110.596,9.744 110.684,9.856 C110.74,9.944 110.784,10.012 110.816,10.06 C110.824,10.076 110.832,10.094 110.84,10.114 C110.848,10.134 110.854,10.154 110.858,10.174 C110.862,10.194 110.868,10.212 110.876,10.228 C110.9,10.292 110.916,10.352 110.924,10.408 C110.932,10.464 110.944,10.544 110.96,10.648 C110.976,10.936 110.948,11.242 110.876,11.566 C110.804,11.89 110.716,12.104 110.612,12.208 C110.612,12.2 110.602,12.22 110.582,12.268 C110.562,12.316 110.552,12.344 110.552,12.352 C110.552,12.448 110.388,12.692 110.06,13.084 C110.004,13.156 109.96,13.224 109.928,13.288 C109.904,13.344 109.896,13.396 109.904,13.444 C109.912,13.492 109.94,13.536 109.988,13.576 C110.22,13.768 110.628,14.264 111.212,15.064 C111.324,15.208 111.428,15.348 111.524,15.484 C111.62,15.62 111.708,15.756 111.788,15.892 C111.964,16.156 112.092,16.384 112.172,16.576 C112.26,16.768 112.294,16.892 112.274,16.948 C112.254,17.004 112.192,17.068 112.088,17.14 C111.976,17.22 111.872,17.22 111.776,17.14 C111.688,17.06 111.552,16.848 111.368,16.504 C111.152,16.096 110.996,15.828 110.9,15.7 C110.844,15.644 110.704,15.468 110.48,15.172 C110.456,15.132 110.428,15.092 110.396,15.052 C110.364,15.012 110.33,14.97 110.294,14.926 L110.186,14.794 L110.186,14.794 C110.15,14.75 110.112,14.702 110.072,14.65 C110.032,14.598 109.988,14.548 109.94,14.5 C109.892,14.452 109.844,14.4 109.796,14.344 C109.564,14.088 109.398,13.942 109.298,13.906 C109.198,13.87 109.028,13.892 108.788,13.972 C108.244,14.172 107.54,14.272 106.676,14.272 L105.92,14.272 L105.92,15.064 C105.92,15.616 105.936,16.056 105.968,16.384 C106.008,16.712 106.056,16.904 106.112,16.96 C106.221714,17.0834286 106.234449,17.2538776 106.150204,17.4713469 L106.1,17.584 C106.036,17.688 105.986,17.756 105.95,17.788 C105.914,17.82 105.852,17.836 105.764,17.836 C105.628,17.836 105.524,17.768 105.452,17.632 C105.308,17.336 105.236,15.54 105.236,12.244 L105.236053,11.98704 L105.236053,11.98704 L105.236853,11.30064 C105.238418,10.5391467 105.242133,10.0616 105.248,9.868 C105.261714,9.64171429 105.287184,9.50065306 105.324408,9.44481633 L105.344,9.424 C105.44,9.384 105.56,9.364 105.704,9.364 C105.832,9.364 105.9216,9.34608 105.9728,9.31024 L106.004,9.28 C106.06,9.224 106.196,9.148 106.412,9.052 C106.492,9.028 106.564,9.004 106.628,8.98 C106.692,8.956 106.754,8.934 106.814,8.914 L106.8995,8.8885 L106.8995,8.8885 L106.976,8.872 C107.016,8.872 107.064,8.868 107.12,8.86 L107.252,8.824 L107.288,8.821 L107.288,8.821 L107.324,8.812 C107.348,8.804 107.372,8.8 107.396,8.8 L107.516,8.776 C107.908,8.696 108.276,8.692 108.62,8.764 Z M123.424,8.68 C123.512,8.68 123.592,8.694 123.664,8.722 C123.736,8.75 123.796,8.796 123.844,8.86 C123.956,8.988 124.012,9.088 124.012,9.16 C124.02,9.232 124.036,9.28 124.06,9.304 C124.1,9.336 124.124,9.4 124.132,9.496 C124.132,9.544 124.138,9.596 124.15,9.652 C124.162,9.708 124.18,9.764 124.204,9.82 C124.316,10.084 124.428,10.42 124.54,10.828 C124.572,10.956 124.668,11.28 124.828,11.8 C124.956,12.168 125.048,12.456 125.104,12.664 C125.128,12.744 125.15,12.816 125.17,12.88 C125.19,12.944 125.208,13.002 125.224,13.054 C125.24,13.106 125.256,13.154 125.272,13.198 C125.288,13.242 125.3,13.276 125.308,13.3 C125.348,13.42 125.384,13.508 125.416,13.564 C125.432,13.588 125.452,13.608 125.476,13.624 C125.5,13.64 125.524,13.652 125.548,13.66 C125.748,13.732 125.8,13.904 125.704,14.176 C125.656,14.304 125.648,14.476 125.68,14.692 C125.712,14.9 125.8,15.264 125.944,15.784 C125.976,15.88 126,15.97 126.016,16.054 C126.032,16.138 126.04,16.216 126.04,16.288 C126.04,16.432 126.056,16.568 126.088,16.696 C126.128,16.848 126.156,17.04 126.172,17.272 C126.188,17.376 126.192,17.466 126.184,17.542 C126.176,17.618 126.16,17.68 126.136,17.728 C126.0976,17.792 126.02848,17.82784 125.92864,17.83552 L125.836,17.836 C125.78,17.828 125.728,17.788 125.68,17.716 C125.632,17.644 125.592,17.544 125.56,17.416 C125.528,17.288 125.496,17.132 125.464,16.948 C125.352,16.044 125.168,15.212 124.912,14.452 L124.84,14.248 L124.228,14.248 C123.62,14.256 123.096,14.288 122.656,14.344 C122.568,14.352 122.488,14.362 122.416,14.374 C122.344,14.386 122.278,14.398 122.218,14.41 C122.158,14.422 122.104,14.434 122.056,14.446 C122.008,14.458 121.966,14.472 121.93,14.488 C121.894,14.504 121.868,14.52 121.852,14.536 C121.804,14.576 121.78,14.664 121.78,14.8 C121.78,14.872 121.772,14.95 121.756,15.034 C121.74,15.118 121.718,15.2 121.69,15.28 C121.662,15.36 121.642,15.442 121.63,15.526 C121.618,15.61 121.612,15.692 121.612,15.772 C121.612,15.844 121.604,15.916 121.588,15.988 C121.572,16.06 121.548,16.136 121.516,16.216 C121.484,16.288 121.462,16.364 121.45,16.444 C121.438,16.524 121.432,16.608 121.432,16.696 C121.432,16.744 121.428,16.794 121.42,16.846 C121.412,16.898 121.404,16.952 121.396,17.008 C121.372,17.128 121.348,17.236 121.324,17.332 C121.3,17.436 121.27,17.528 121.234,17.608 C121.198,17.688 121.164,17.736 121.132,17.752 C120.972,17.88 120.836,17.856 120.724,17.68 C120.604,17.512 120.612,17.184 120.748,16.696 C120.812,16.44 120.864,16.2 120.904,15.976 C120.944,15.736 120.975667,15.5598889 120.999,15.4476667 L121.012,15.388 C121.036,15.3 121.068,15.124 121.108,14.86 C121.124,14.732 121.142,14.624 121.162,14.536 C121.182,14.448 121.2,14.376 121.216,14.32 C121.248,14.24 121.288,14.044 121.336,13.732 C121.3872,13.4248 121.46656,13.09712 121.57408,12.74896 L121.66,12.484 C121.668,12.46 121.752,12.212 121.912,11.74 C121.9888,11.4904 122.05536,11.29456 122.11168,11.15248 L122.152,11.056 C122.192,10.976 122.248,10.808 122.32,10.552 C122.608,9.6 122.844,9.02 123.028,8.812 C123.076,8.764 123.132,8.73 123.196,8.71 C123.26,8.69 123.336,8.68 123.424,8.68 Z M27.688,9.52 C27.68,9.536 27.666,9.572 27.646,9.628 C27.626,9.684 27.6,9.76 27.568,9.856 C27.44,10.28 27.144,11.156 26.68,12.484 C26.496,13.012 26.404,13.348 26.404,13.492 L26.404,13.672 L27.22,13.648 C27.58,13.624 27.996,13.592 28.468,13.552 C28.66,13.536 28.776,13.516 28.816,13.492 C28.856,13.476 28.88,13.44 28.888,13.384 C28.912,13.216 28.796,12.76 28.54,12.016 C28.412,11.648 28.272,11.172 28.12,10.588 C28.04,10.268 27.928,9.968 27.784,9.688 C27.76,9.64 27.74,9.602 27.724,9.574 C27.708,9.546 27.696,9.528 27.688,9.52 Z M56.996,9.52 C56.988,9.536 56.974,9.572 56.954,9.628 C56.934,9.684 56.908,9.76 56.876,9.856 C56.748,10.28 56.452,11.156 55.988,12.484 C55.804,13.012 55.712,13.348 55.712,13.492 L55.712,13.672 L56.528,13.648 C56.888,13.624 57.304,13.592 57.776,13.552 C57.968,13.536 58.084,13.516 58.124,13.492 C58.164,13.476 58.188,13.44 58.196,13.384 C58.22,13.216 58.104,12.76 57.848,12.016 C57.72,11.648 57.58,11.172 57.428,10.588 C57.348,10.268 57.236,9.968 57.092,9.688 C57.068,9.64 57.048,9.602 57.032,9.574 C57.016,9.546 57.004,9.528 56.996,9.52 Z M94.056,9.52 C94.048,9.536 94.034,9.572 94.014,9.628 C93.994,9.684 93.968,9.76 93.936,9.856 C93.808,10.28 93.512,11.156 93.048,12.484 C92.864,13.012 92.772,13.348 92.772,13.492 L92.772,13.672 L93.588,13.648 C93.948,13.624 94.364,13.592 94.836,13.552 C95.028,13.536 95.144,13.516 95.184,13.492 C95.224,13.476 95.248,13.44 95.256,13.384 C95.28,13.216 95.164,12.76 94.908,12.016 C94.78,11.648 94.64,11.172 94.488,10.588 C94.408,10.268 94.296,9.968 94.152,9.688 C94.128,9.64 94.108,9.602 94.092,9.574 C94.076,9.546 94.064,9.528 94.056,9.52 Z M123.364,9.52 C123.356,9.536 123.342,9.572 123.322,9.628 C123.302,9.684 123.276,9.76 123.244,9.856 C123.116,10.28 122.82,11.156 122.356,12.484 C122.172,13.012 122.08,13.348 122.08,13.492 L122.08,13.672 L122.896,13.648 C123.256,13.624 123.672,13.592 124.144,13.552 C124.336,13.536 124.452,13.516 124.492,13.492 C124.532,13.476 124.556,13.44 124.564,13.384 C124.588,13.216 124.472,12.76 124.216,12.016 C124.088,11.648 123.948,11.172 123.796,10.588 C123.716,10.268 123.604,9.968 123.46,9.688 C123.436,9.64 123.416,9.602 123.4,9.574 C123.384,9.546 123.372,9.528 123.364,9.52 Z M41.502,9.406 C41.362,9.41 41.236,9.424 41.124,9.448 C40.428,9.56 40.08,9.716 40.08,9.916 C40.08,9.988 40.028,10.068 39.924,10.156 C39.876,10.204 39.828,10.238 39.78,10.258 C39.732,10.278 39.688,10.288 39.648,10.288 C39.6,10.288 39.572,10.364 39.564,10.516 C39.5581818,10.6265455 39.5544793,10.9 39.5528926,11.3363636 L39.5520992,11.6941818 C39.5520331,11.7589091 39.552,11.8261818 39.552,11.896 L39.552,13.492 L39.768,13.528 C39.992,13.576 40.384,13.584 40.944,13.552 C41.504,13.512 41.908,13.456 42.156,13.384 C42.428,13.296 42.704,13.116 42.984,12.844 C43.264,12.572 43.5,12.244 43.692,11.86 C43.796,11.652 43.86,11.498 43.884,11.398 C43.908,11.298 43.92,11.152 43.92,10.96 C43.92,10.832 43.912,10.714 43.896,10.606 C43.88,10.498 43.854,10.4 43.818,10.312 C43.782,10.224 43.736,10.148 43.68,10.084 C43.512,9.892 43.2,9.716 42.744,9.556 C42.544,9.492 42.28,9.448 41.952,9.424 C41.792,9.408 41.642,9.402 41.502,9.406 Z M107.87,9.406 C107.73,9.41 107.604,9.424 107.492,9.448 C106.796,9.56 106.448,9.716 106.448,9.916 C106.448,9.988 106.396,10.068 106.292,10.156 C106.244,10.204 106.196,10.238 106.148,10.258 C106.1,10.278 106.056,10.288 106.016,10.288 C105.968,10.288 105.94,10.364 105.932,10.516 C105.926182,10.6265455 105.922479,10.9 105.920893,11.3363636 L105.920099,11.6941818 C105.920033,11.7589091 105.92,11.8261818 105.92,11.896 L105.92,13.492 L106.136,13.528 C106.36,13.576 106.752,13.584 107.312,13.552 C107.872,13.512 108.276,13.456 108.524,13.384 C108.796,13.296 109.072,13.116 109.352,12.844 C109.632,12.572 109.868,12.244 110.06,11.86 C110.164,11.652 110.228,11.498 110.252,11.398 C110.276,11.298 110.288,11.152 110.288,10.96 C110.288,10.832 110.28,10.714 110.264,10.606 C110.248,10.498 110.222,10.4 110.186,10.312 C110.15,10.224 110.104,10.148 110.048,10.084 C109.88,9.892 109.568,9.716 109.112,9.556 C108.912,9.492 108.648,9.448 108.32,9.424 C108.16,9.408 108.01,9.402 107.87,9.406 Z" id="Combined-Shape" stroke="#000000" fill="#000000" fill-rule="nonzero"></path>
    </g>
</svg>