<?xml version="1.0" encoding="UTF-8"?>
<svg width="48px" height="48px" viewBox="0 0 48 48" version="1.1" xmlns="http://www.w3.org/2000/svg" xmlns:xlink="http://www.w3.org/1999/xlink">
    <title>icon/plus copy</title>
    <g id="icon/plus-copy" stroke="none" stroke-width="1" fill="none" fill-rule="evenodd">
        <path d="M24.3782084,8.94210958 C24.7579041,8.94210958 25.0716993,9.22426346 25.1213618,9.59033902 L25.1282084,9.69210958 L25.1273179,23.2491096 L38.6860988,23.25 C39.1003124,23.25 39.4360988,23.5857864 39.4360988,24 C39.4360988,24.3796958 39.1539449,24.693491 38.7878693,24.7431534 L38.6860988,24.75 L25.1273179,24.7491096 L25.1282084,38.3078904 C25.1282084,38.722104 24.7924219,39.0578904 24.3782084,39.0578904 C23.9985126,39.0578904 23.6847174,38.7757365 23.635055,38.409661 L23.6282084,38.3078904 L23.6273179,24.7491096 L10.0703179,24.75 C9.65610438,24.75 9.32031795,24.4142136 9.32031795,24 C9.32031795,23.6203042 9.60247183,23.306509 9.96854739,23.2568466 L10.0703179,23.25 L23.6273179,23.2491096 L23.6282084,9.69210958 C23.6282084,9.27789602 23.9639948,8.94210958 24.3782084,8.94210958 Z" id="Combined-Shape" fill="#000000" fill-rule="nonzero" transform="translate(24.378208, 24.000000) rotate(-315.000000) translate(-24.378208, -24.000000) "></path>
    </g>
</svg>