<?xml version="1.0" encoding="UTF-8"?>
<svg width="48px" height="48px" viewBox="0 0 48 48" version="1.1" xmlns="http://www.w3.org/2000/svg" xmlns:xlink="http://www.w3.org/1999/xlink">
    <title>icon/profile</title>
    <g id="icon/profile" stroke="none" stroke-width="1" fill="none" fill-rule="evenodd">
        <path d="M24,26.21 C34.3774304,26.21 42.79,34.6225696 42.79,45 C42.79,45.4142136 42.4542136,45.75 42.04,45.75 C41.6257864,45.75 41.29,45.4142136 41.29,45 C41.29,35.4509967 33.5490033,27.71 24,27.71 C14.4509967,27.71 6.71,35.4509967 6.71,45 C6.71,45.4142136 6.37421356,45.75 5.96,45.75 C5.54578644,45.75 5.21,45.4142136 5.21,45 C5.21,34.6225696 13.6225696,26.21 24,26.21 Z M24,3.25 C29.8486955,3.25 34.59,7.9913045 34.59,13.84 C34.59,19.6886955 29.8486955,24.43 24,24.43 C18.1513045,24.43 13.41,19.6886955 13.41,13.84 C13.41,7.9913045 18.1513045,3.25 24,3.25 Z M24,4.75 C18.9797316,4.75 14.91,8.81973162 14.91,13.84 C14.91,18.8602684 18.9797316,22.93 24,22.93 C29.0202684,22.93 33.09,18.8602684 33.09,13.84 C33.09,8.81973162 29.0202684,4.75 24,4.75 Z" id="Combined-Shape" fill="#000000" fill-rule="nonzero"></path>
    </g>
</svg>