<?xml version="1.0" encoding="UTF-8"?>
<svg width="279px" height="28px" viewBox="0 0 279 28" version="1.1" xmlns="http://www.w3.org/2000/svg" xmlns:xlink="http://www.w3.org/1999/xlink">
    <title>logo white</title>
    <g id="logo-white" stroke="none" stroke-width="1" fill="current" fill-rule="evenodd">
        <path d="M23.6458168,6 L23.6458168,8.26666667 L14.0969347,20.6152778 L23.9742796,20.6152778 C24.0915877,21.6305556 23.8335099,23 22.6604285,23 L22.6604285,23 L11,23 L11,20.7097222 L20.4081123,8.38472222 L11.3519244,8.38472222 L11.3519244,6 L23.6458168,6 Z M49.8095238,6 C50.6666667,6 51.4761905,6.28333333 51.8333333,7.08611111 C54.1190476,12.1152778 56.7142857,17.9708333 59,23 L59,23 L56,23 L54.0238095,18.5375 L45.7857143,18.5375 L43.8809524,23 L41,23 L48.3809524,6 Z M82.1683168,6 C85.7722772,6 88.7986799,7.08611111 88.7986799,10.7222222 C88.7986799,12.5638889 87.2970297,13.9333333 85.4950495,14.5236111 C86.1419142,14.8541667 86.5115512,15.2791667 86.8811881,16.0347222 L86.8811881,16.0347222 L88.3366337,19.3166667 L90,23 L86.8349835,23 L84.3861386,17.0736111 C83.7854785,15.7041667 82.8151815,15.5625 81.7062706,15.5625 L81.7062706,15.5625 L78.7722772,15.5625 L78.7722772,23 L76,23 L76,6 Z M114.809524,6 C115.666667,6 116.47619,6.28333333 116.833333,7.08611111 C119.119048,12.1152778 121.714286,17.9708333 124,23 L124,23 L121,23 L119.02381,18.5375 L110.785714,18.5375 L108.880952,23 L106,23 L113.380952,6 Z M166.286645,6.0453434 C167.449511,5.88050646 169,6.1159878 169,7.57597212 L169,7.57597212 L169,23 L165.762215,23 L157.713355,9.74240047 L157.713355,23 L155,23 L155,6.0453434 L156.710098,6.0453434 C157.667752,6.0453434 158.420195,6.18663221 158.990228,7.17565384 C161.407166,11.061096 163.846906,14.9936344 166.218241,18.9026247 L166.218241,18.9026247 L166.286645,18.9968172 Z M195.809524,6 C196.666667,6 197.47619,6.28333333 197.833333,7.08611111 C200.119048,12.1152778 202.714286,17.9708333 205,23 L205,23 L202,23 L200.02381,18.5375 L191.785714,18.5375 L189.880952,23 L187,23 L194.380952,6 Z M228.168317,6 C231.772277,6 234.79868,7.08611111 234.79868,10.7222222 C234.79868,12.5638889 233.29703,13.9333333 231.49505,14.5236111 C232.141914,14.8541667 232.511551,15.2791667 232.881188,16.0347222 L232.881188,16.0347222 L234.336634,19.3166667 L236,23 L232.834983,23 L230.386139,17.0736111 C229.785479,15.7041667 228.815182,15.5625 227.706271,15.5625 L227.706271,15.5625 L224.772277,15.5625 L224.772277,23 L222,23 L222,6 Z M260.809524,6 C261.666667,6 262.47619,6.28333333 262.833333,7.08611111 C265.119048,12.1152778 267.714286,17.9708333 270,23 L270,23 L267,23 L265.02381,18.5375 L256.785714,18.5375 L254.880952,23 L252,23 L259.380952,6 Z M49.8571429,9.02222222 L46.7857143,16.1763889 L53,16.1763889 L49.8571429,9.02222222 Z M114.857143,9.02222222 L111.785714,16.1763889 L118,16.1763889 L114.857143,9.02222222 Z M195.857143,9.02222222 L192.785714,16.1763889 L199,16.1763889 L195.857143,9.02222222 Z M260.857143,9.02222222 L257.785714,16.1763889 L264,16.1763889 L260.857143,9.02222222 Z M82.7458746,8.38472222 L78.7722772,8.38472222 L78.7722772,13.2013889 L82.1683168,13.2013889 C84.1551155,13.2013889 86.0264026,12.0916667 86.0264026,10.675 C86.0264026,9.30555556 84.8019802,8.38472222 82.7458746,8.38472222 L82.7458746,8.38472222 Z M228.745875,8.38472222 L224.772277,8.38472222 L224.772277,13.2013889 L228.168317,13.2013889 C230.155116,13.2013889 232.026403,12.0916667 232.026403,10.675 C232.026403,9.30555556 230.80198,8.38472222 228.745875,8.38472222 L228.745875,8.38472222 Z" id="Combined-Shape" fill="#FFFFFF" fill-rule="nonzero"></path>
    </g>
</svg>